<svg xmlns="http://www.w3.org/2000/svg" width="600" height="400" viewBox="0 0 600 400" fill="none">
  <!-- Background -->
  <rect width="600" height="400" fill="#F9FAFB" />
  
  <!-- City Skyline -->
  <rect x="50" y="200" width="30" height="100" fill="#9CA3AF" />
  <rect x="80" y="150" width="40" height="150" fill="#6B7280" />
  <rect x="120" y="180" width="25" height="120" fill="#9CA3AF" />
  <rect x="145" y="220" width="35" height="80" fill="#6B7280" />
  <rect x="180" y="170" width="40" height="130" fill="#9CA3AF" />
  <rect x="220" y="140" width="30" height="160" fill="#6B7280" />
  <rect x="250" y="190" width="45" height="110" fill="#9CA3AF" />
  <rect x="295" y="160" width="35" height="140" fill="#6B7280" />
  <rect x="330" y="200" width="25" height="100" fill="#9CA3AF" />
  <rect x="355" y="130" width="40" height="170" fill="#6B7280" />
  <rect x="395" y="180" width="30" height="120" fill="#9CA3AF" />
  <rect x="425" y="150" width="45" height="150" fill="#6B7280" />
  <rect x="470" y="190" width="35" height="110" fill="#9CA3AF" />
  <rect x="505" y="170" width="30" height="130" fill="#6B7280" />
  
  <!-- Ground -->
  <rect x="50" y="300" width="485" height="20" fill="#4B5563" />
  
  <!-- Police Station -->
  <rect x="150" y="220" width="80" height="80" fill="#1E40AF" />
  <rect x="170" y="260" width="40" height="40" fill="#BFDBFE" />
  <rect x="185" y="220" width="10" height="40" fill="#BFDBFE" />
  
  <!-- Police Car -->
  <rect x="320" y="280" width="60" height="20" rx="5" fill="#1E3A8A" />
  <rect x="330" y="265" width="40" height="15" rx="3" fill="#BFDBFE" />
  <circle cx="330" cy="300" r="7" fill="#1F2937" />
  <circle cx="370" cy="300" r="7" fill="#1F2937" />
  <rect x="350" y="270" width="5" height="5" fill="#EF4444" />
  <rect x="345" y="270" width="5" height="5" fill="#3B82F6" />
  
  <!-- Street Lamp -->
  <rect x="450" y="230" width="5" height="70" fill="#4B5563" />
  <circle cx="452.5" cy="230" r="10" fill="#FBBF24" />
  <path d="M452.5 220 L447.5 230 L457.5 230 Z" fill="#FBBF24" />
  
  <!-- Person Reporting -->
  <circle cx="100" cy="280" r="15" fill="#C084FC" />
  <rect x="95" y="295" width="10" height="25" fill="#C084FC" />
  <rect x="85" y="310" width="10" height="20" fill="#C084FC" />
  <rect x="105" y="310" width="10" height="20" fill="#C084FC" />
  <rect x="80" y="300" width="15" height="5" fill="#C084FC" />
  <rect x="105" y="300" width="15" height="5" fill="#C084FC" />
  
  <!-- Smartphone -->
  <rect x="110" y="290" width="8" height="15" rx="1" fill="#1F2937" />
  
  <!-- Security Camera -->
  <rect x="400" y="230" width="20" height="10" fill="#1F2937" />
  <path d="M420 235 L430 230 L430 240 L420 235 Z" fill="#1F2937" />
  
  <!-- Sun/Moon -->
  <circle cx="500" cy="100" r="30" fill="#FBBF24" />
  <circle cx="490" cy="90" r="8" fill="#F9FAFB" />
  <circle cx="510" cy="90" r="10" fill="#F9FAFB" />
  <circle cx="500" cy="110" r="7" fill="#F9FAFB" />
  
  <!-- Shield Logo -->
  <path d="M300 100 L330 110 L330 140 C330 160 315 175 300 185 C285 175 270 160 270 140 L270 110 Z" fill="#6366F1" />
  <path d="M300 115 L315 120 L315 140 C315 150 307.5 160 300 165 C292.5 160 285 150 285 140 L285 120 Z" fill="#F9FAFB" />
  
  <!-- Text Bubble -->
  <path d="M120 250 L140 250 L140 235 L150 245 L160 235 L160 250 L180 250 L180 210 L120 210 Z" fill="#F9FAFB" stroke="#6B7280" stroke-width="2" />
</svg> 